<?xml version="1.0" standalone="no"?>
<!DOCTYPE svg PUBLIC "-//W3C//DTD SVG 20010904//EN"
 "http://www.w3.org/TR/2001/REC-SVG-20010904/DTD/svg10.dtd">
<svg version="1.0" xmlns="http://www.w3.org/2000/svg"
 width="229.000000pt" height="229.000000pt" viewBox="0 0 229.000000 229.000000"
 preserveAspectRatio="xMidYMid meet">
<metadata>
Created by potrace 1.14, written by Peter Selinger 2001-2017
</metadata>
<g transform="translate(0.000000,229.000000) scale(0.100000,-0.100000)"
fill="#000000" stroke="none">
<path d="M350 2056 c-171 -48 -295 -166 -336 -320 -18 -66 -20 -1035 -3 -1118
33 -160 179 -299 353 -338 40 -9 418 -13 1039 -10 l67 0 0 185 0 185 190 0
189 0 6 33 c3 17 5 259 3 537 -4 493 -4 506 -26 565 -44 118 -141 211 -279
267 l-58 23 -550 2 c-419 1 -561 -1 -595 -11z m1081 -362 c16 -17 34 -46 38
-65 4 -19 7 -236 6 -484 -1 -493 1 -477 -61 -516 -30 -18 -53 -19 -493 -20
-509 0 -497 -2 -536 64 -16 27 -18 67 -18 491 0 509 -1 501 62 543 l34 23 468
-2 469 -3 31 -31z"/>
<path d="M1854 641 c-2 -2 -4 -87 -4 -188 l0 -183 190 0 190 0 0 188 0 187
-186 0 c-102 0 -188 -2 -190 -4z"/>
</g>
</svg>
